<?xml version="1.0" standalone="no"?>
<!DOCTYPE svg PUBLIC "-//W3C//DTD SVG 1.1//EN" "http://www.w3.org/Graphics/SVG/1.1/DTD/svg11.dtd" >
<svg xmlns="http://www.w3.org/2000/svg" xmlns:xlink="http://www.w3.org/1999/xlink" version="1.1">
<metadata>
Created by FontForge 20150318 at Mon Sep 21 02:02:29 2015
 By uniteet7
</metadata>
<defs>
<font id="iconfont-Medium" horiz-adv-x="1024" >
  <font-face 
    font-family="iconfont"
    font-weight="500"
    font-stretch="normal"
    units-per-em="1024"
    panose-1="2 0 6 3 0 0 0 0 0 0"
    ascent="812"
    descent="-212"
    x-height="792"
    bbox="34 -340 971.346 941"
    underline-thickness="50"
    underline-position="-100"
    unicode-range="U+001D-F0152"
  />
<missing-glyph horiz-adv-x="374" 
d="M34 0v682h272v-682h-272zM68 34h204v614h-204v-614z" />
    <glyph glyph-name=".notdef" horiz-adv-x="374" 
d="M34 0v682h272v-682h-272zM68 34h204v614h-204v-614z" />
    <glyph glyph-name=".null" horiz-adv-x="0" 
 />
    <glyph glyph-name=".null" horiz-adv-x="0" 
 />
    <glyph glyph-name="nonmarkingreturn" horiz-adv-x="341" 
 />
    <glyph glyph-name="x" unicode="x" horiz-adv-x="1001" 
d="M281 543q-27 -1 -53 -1h-83q-18 0 -36.5 -6t-32.5 -18.5t-23 -32t-9 -45.5v-76h912v41q0 16 -0.5 30t-0.5 18q0 13 -5 29t-17 29.5t-31.5 22.5t-49.5 9h-133v-97h-438v97zM955 310v-52q0 -23 0.5 -52t0.5 -58t-10.5 -47.5t-26 -30t-33 -16t-31.5 -4.5q-14 -1 -29.5 -0.5
t-29.5 0.5h-32l-45 128h-439l-44 -128h-29h-34q-20 0 -45 1q-25 0 -41 9.5t-25.5 23t-13.5 29.5t-4 30v167h911zM163 247q-12 0 -21 -8.5t-9 -21.5t9 -21.5t21 -8.5q13 0 22 8.5t9 21.5t-9 21.5t-22 8.5zM316 123q-8 -26 -14 -48q-5 -19 -10.5 -37t-7.5 -25t-3 -15t1 -14.5
t9.5 -10.5t21.5 -4h37h67h81h80h64h36q23 0 34 12t2 38q-5 13 -9.5 30.5t-9.5 34.5q-5 19 -11 39h-368zM336 498v228q0 11 2.5 23t10 21.5t20.5 15.5t34 6h188q31 0 51.5 -14.5t20.5 -52.5v-227h-327z" />
    <glyph glyph-name="uni3448" unicode="&#x3448;" 
d="M273 -64q-24 0 -24 23v145h511v-145q0 -23 -24 -23h-463zM736 767q24 0 24 -24v-587h-511v587q0 24 24 24h463zM273 814q-30 0 -50 -21q-21 -21 -21 -50v-784q0 -29 21 -50q20 -21 50 -21h463q30 0 50 21q21 21 21 50v784q0 29 -21 50q-20 21 -50 21h-463zM471 57
q-13 -13 -13 -33q0 -19 13 -33q14 -14 34 -14q19 0 33 14q13 14 13 33q0 20 -13 33q-14 14 -33 14q-20 0 -34 -14z" />
    <glyph glyph-name="uni347C" unicode="&#x347c;" 
d="M302 661v-713l499 356z" />
    <glyph glyph-name="uniE613" unicode="&#xe613;" 
d="M386 700v-281h-168l281 -280l280 280h-168v281h-225zM218 -86h561v112h-561v-112z" />
    <glyph glyph-name="uniE616" unicode="&#xe616;" 
d="M501 695l-12 -1l-12 -1l-12 -2l-11 -2l-12 -2l-11 -2l-11 -4l-10 -3l-11 -3l-10 -5l-10 -4l-8 -5l-9 -5l-9 -6l-8 -6l-6 -6l-11 -9l-9 -9l-8 -9l-8 -8l-7 -9l-6 -9l-7 -9l-2 -4l-3 -4l-6 -8l-4 -9l-4 -7l-4 -9l-3 -7l-3 -7l-3 -8l-3 -7l-3 -12l-3 -12l-1 -11l-2 -8v-17
l-2 -3l-3 -3l-1 -3l-2 -4l-2 -7l-2 -7l-1 -6v-5v-5l-5 -6l-4 -7l-2 -7l-2 -6l-2 -5l-1 -6v-13l1 -3l1 -6l1 -5l-2 -2l-8 -6l-10 -8l-6 -6l-7 -5l-4 -4l-3 -4l-8 -7l-7 -8l-5 -7l-7 -9l-6 -9l-6 -9l-6 -9l-4 -9l-5 -9l-3 -9l-4 -9l-2 -8l-3 -9l-2 -8l-2 -8l-1 -8l-1 -8
l-1 -14v-20l1 -6l2 -10v-5l2 -4l1 -5l2 -3l2 -5l2 -2l1 -2l1 -1h2l6 1l6 1l6 3l5 3l5 3l5 4l5 5l4 4l4 5l3 5l4 3l2 5l4 7l1 3l1 2v2l1 1l1 1h1h1h1v0l1 -1l2 -9l3 -8l3 -9l4 -7l2 -7l5 -7l3 -7l4 -6l4 -5l3 -6l8 -9l8 -9l7 -6l7 -6l6 -5l9 -8l3 -1l2 -2v-1l-1 -1h-1h-1
l-7 -1l-6 -1h-6l-5 -1l-5 -2l-5 -1l-4 -2l-3 -2l-5 -2l-2 -2l-3 -1l-3 -3l-4 -4l-1 -2l-2 -2l-3 -5l-1 -4l-2 -4v-4v-6v-4v-3l-1 -3v-3l1 -3v-3l2 -6l1 -2l2 -3l2 -2l2 -3l3 -2l2 -2l6 -5l6 -3l7 -4l8 -3l8 -3l9 -2l9 -2l9 -2l10 -2l10 -1l10 -2l20 -2h21h36h9l8 1l7 1h7
l12 2l8 3l7 2l14 5l7 2l6 3l10 6l9 4l7 4l5 5l8 -1l6 -1l11 -1h11h3l4 -2l6 -2l6 -2l12 -3l13 -5l12 -3l12 -3l13 -3l13 -1l12 -2l13 -1l11 -1l12 -1h35l11 1l11 1l10 1l10 2l9 2l10 2l3 1l5 2l8 3l7 3l6 3l7 4l5 4l2 2l3 3l3 4l4 5l1 2l1 2l1 2l1 3v3l1 3l-1 4l-1 3l-1 4
l-1 3l-3 4l-2 4l-3 3l-4 3l-7 6l-8 6l-9 5l-8 4l-20 10l-5 3l-1 1l-1 1l9 9l5 5l3 4l7 9l6 10l5 8l6 8l6 17l6 13l3 10l2 3l1 2l2 2h1h1l5 -10l5 -10l3 -5l3 -4l4 -6l4 -6l3 -4l3 -2l2 -2l2 -1l2 -1l4 -2l2 -1h3l2 1l3 1l3 1l3 2l2 3l2 3l3 2l2 4l2 3l2 5l1 3l3 9l2 10l1 11
l1 6v18l-1 13l-3 14l-2 14l-2 7l-2 8l-3 7l-3 8l-3 8l-4 8l-6 13l-5 11l-6 10l-5 10l-5 8l-4 8l-9 12l-11 16l-2 3l-1 2v1l2 6l2 4l2 10l2 4v5v4v4v5l-1 4l-2 7l-2 8l-2 7l-3 6l-3 6l-2 5l-3 5l-5 7l-2 3v2l-2 14l-2 9l-1 12l-3 12l-3 13l-2 8l-2 7l-2 7l-3 8l-3 7l-3 8
l-7 16l-4 7l-5 8l-5 8l-4 8l-7 7l-5 8l-7 7l-7 7l-7 7l-8 6l-5 3l-4 3l-8 6l-11 7l-10 6l-11 5l-12 5l-11 4l-11 4l-13 4l-11 3l-13 2l-11 3l-13 1l-12 2l-12 1h-37z" />
    <glyph glyph-name="uniE61B" unicode="&#xe61b;" 
d="M351 420l-12 -11q-17 -19 -5 -47q8 -17 37 -52q0 -2 66 -67q66 -64 67 -64q59 -49 73 -56q27 -15 44 2l12 11l185 -186q-53 -51 -159 -28q-151 31 -330 212q-171 173 -200 314q-19 95 24 149l11 11zM373 442l-187 188q5 6 27 27q20 21 49 21t49 -21l88 -89q21 -20 21 -49
t-20 -50zM840 -28l-186 186l22 22q21 21 51 24q31 3 51 -18l88 -88q21 -21 21 -50t-21 -49q-15 -16 -26 -27z" />
    <glyph glyph-name="uniE61D" unicode="&#xe61d;" 
d="M820 152q-4 0 -7.5 1.5t-6.5 4.5l-279 274l-278 -274q-7 -6 -15 -6t-14 6t-6 14.5t6 14.5l293 288q6 6 14.5 6t13.5 -6l293 -288q4 -4 5.5 -9t0.5 -10.5t-5 -9.5q-6 -6 -15 -6z" />
    <glyph glyph-name="uniE620" unicode="&#xe620;" 
d="M508.5 263q-22.5 0 -41.5 -11t-30 -30t-11 -42q0 -27 17 -49q0 -1 1 -1q9 -11 14.5 -21.5t6 -14.5t1.5 -7v-47q0 -18 12.5 -30.5t30.5 -12.5t30.5 12.5t12.5 30.5v48v2q0 3 2 7q2 6 6.5 14t12.5 18q1 0 1 1q17 22 17 50q0 23 -11 42t-30 30t-41.5 11zM545 153
q-32 -37 -30 -65v-48q0 -6 -6 -6q-3 0 -4.5 2t-1.5 4v48q0 30 -31 66q-3 4 -4.5 8t-2.5 9t-1 9q0 19 13 32.5t31.5 13.5t32 -13.5t13.5 -32.5q0 -7 -2.5 -14t-6.5 -13zM823 422h-46v120v2q-13 99 -88 165q-76 67 -177 67q-110 0 -188 -78q-38 -37 -58 -86t-20 -102v-88h-51
q-17 0 -32 -9t-23.5 -23.5t-8.5 -31.5v-452q0 -13 5 -25t13.5 -20.5t20.5 -13.5t25 -5h390h1h235h2q17 0 31.5 8.5t23 23t8.5 32.5v452q0 26 -18.5 45t-44.5 19zM849 -94q0 -7 -3 -13t-9 -9.5t-12 -4.5h-246h-2h-382q-11 0 -19 8t-8 19v452q0 7 4 13t10 9.5t13 3.5h69h3h3
h353h2q4 0 9 0.5t15 2t19 4t21 7t22 11.5q6 4 7.5 12t-2.5 14q-2 3 -5 5t-6.5 3t-7.5 0t-7 -3q-30 -20 -66 -18h-1h-340v88q0 95 67 162t162 67q42 0 81.5 -15t70.5 -43q16 -13 28.5 -29.5t22 -34t16 -37t8.5 -40.5v-136q0 -1 0.5 -2.5t0.5 -2.5v-1q4 -14 19 -14h64
q11 0 18.5 -7.5t7.5 -18.5v-452z" />
    <glyph glyph-name="uniE62D" unicode="&#xe62d;" 
d="M894 433h-122v102q0 49 -18.5 93.5t-53 79.5t-79.5 53.5t-94 18.5t-93.5 -18.5t-79.5 -53.5q-72 -72 -72 -173v-102h-122q-9 0 -15 -6t-6 -15v-571q0 -6 3 -10.5t7.5 -7.5t10.5 -3h734q9 0 15 6t6 15v571q0 9 -6 15t-15 6zM323 535q0 84 60 144q29 29 66 44.5t78 15.5
q85 0 144.5 -60t59.5 -144v-102h-408v102zM874 -139h-694v531h694v-531zM588 167q0 -13 -5 -24.5t-15 -20.5v-57q0 -17 -12 -28.5t-29 -11.5t-29 11.5t-12 28.5v57q-20 18 -20 45q0 26 18 44t43 18q8 0 16 -2.5t15 -6.5t12.5 -9.5t9.5 -12t6 -14.5t2 -17z" />
    <glyph glyph-name="uniE633" unicode="&#xe633;" 
d="M703 -183q-5 0 -10 3q-14 9 -35 15t-36 8t-26 3h-22l-35 -1h-446q-4 0 -7.5 1.5t-6 4t-4 6t-1.5 7.5v23q-2 38 21 78q21 35 59 60q46 30 114 42h1q35 5 71 14q28 8 45 16t19.5 11t3.5 4q0 2 1 4q2 11 0 40q-3 32 -16 61.5t-24 44t-31 37.5q-5 5 -7.5 8t-6 7t-6 8t-5.5 7
q-29 42 -31 90v1q0 19 17 35l1 1v0v3q0 2 -1 4v3q-13 69 -1 138q0 14 5.5 28.5t11.5 24.5t14 20t11.5 13t5.5 5q6 5 10 9.5t7 8.5q0 1 0.5 1t0.5 1q-1 1 -1 2q-6 15 -4 25q1 7 6.5 13.5t17.5 10.5q5 1 9.5 1.5t10.5 0.5h2q44 3 70 1q49 -4 91.5 -14t67 -20t44.5 -22
t25.5 -17t8.5 -9h1q10 -13 18 -28.5t13 -33.5q1 -6 2 -11t2 -9q7 -40 3 -97q0 -10 -1 -21t-3 -24q-1 -5 0 -6l3 -3q9 -9 12 -18q1 -4 1.5 -7.5t0.5 -8.5v-1q-1 -6 -2 -15.5t-9 -33t-21 -41.5q-6 -10 -24 -30q-20 -23 -31 -37.5t-24 -44t-16 -61.5q-3 -29 -1 -40l2 -4
q0 -1 3 -4t20 -11t44 -16q10 -2 21.5 -4.5t19.5 -4t15.5 -3t10.5 -2t4 -0.5h1q70 -13 116 -43q38 -25 58 -60q23 -39 20 -78v-22q0 -8 -5 -13.5t-13 -5.5h-177q-16 4 -19 19q0 8 5.5 13.5t13.5 5.5h158v4v2q2 28 -16 58q-17 27 -47 47q-39 25 -100 36q-38 5 -75 15
q-25 7 -43.5 14.5t-28 14.5t-14.5 13t-7 13q-7 13 -3 60q1 17 5 33t8 28.5t11.5 26t13 22.5t14.5 20.5t14 17.5t14 16q6 6 8.5 9.5t6.5 8.5t7 8q21 32 24 71v3q0 1 -4 5l-4 4q-11 14 -8 36q3 23 4 41q3 53 -3 89v1q-1 1 -1 3v4l-2 4q0 2 -1 4q-2 10 -5.5 18t-7.5 15.5
t-10 13.5l-2 2q-2 2 -6 5.5t-8.5 6.5t-12.5 7.5t-16 8.5q-67 32 -167 39q-24 2 -65 0h-2q-4 0 -7 -1q6 -13 2 -25q-2 -6 -6 -12q-4 -7 -10 -13.5t-14 -12.5q-1 -2 -4 -4.5t-8.5 -9.5t-10 -14.5t-8.5 -17.5t-4 -20v-2q-11 -63 1 -126v-3q5 -27 -11 -42l-6 -6v0v-1q1 -6 2 -14
t7 -25.5t16 -31.5q5 -8 22 -26q21 -25 33.5 -41.5t28 -51t18.5 -71.5q4 -47 -3 -60q-5 -15 -25.5 -28.5t-67.5 -26.5q-11 -3 -22 -5.5t-19 -4t-16.5 -3t-12 -2t-5.5 -0.5q-61 -10 -100 -35q-15 -10 -26.5 -22t-20.5 -25q-18 -31 -17 -59v-2v-4h427h36h22h1q71 -2 117 -32
q6 -4 7.5 -11.5t-2.5 -14.5l-3 -3q-1 -1 -2.5 -2t-3 -1.5t-3.5 -1t-4 -0.5zM631 122q1 0 2 -1q-1 0 -1 0.5t-1 0.5zM414 122q-1 0 -1 -1z" />
    <glyph glyph-name="uniE648" unicode="&#xe648;" 
d="M760 548q-9 21 -20 40.5t-24.5 37t-29.5 33.5q-8 8 -16.5 15t-17.5 14t-18 13.5t-18.5 12t-19.5 10.5t-21 9q-64 27 -135 27q-35 0 -69 -6.5t-66 -20.5q-20 -9 -39.5 -20t-37 -24.5t-33.5 -29.5q-48 -48 -74 -111q-28 -64 -28 -134.5t28 -135.5q26 -62 74 -110t110 -74
q65 -28 135.5 -28t134.5 28q63 26 111 74q24 24 42.5 51.5t31.5 58.5q14 32 20.5 66t6.5 69q0 71 -27 135zM657 197q-44 -43 -99.5 -66.5t-117.5 -23.5q-126 0 -216 90t-90 216.5t90 216t216.5 89.5t216.5 -89q43 -44 66 -99.5t23 -117.5q0 -126 -89 -216zM955 -121
q-3 -3 -7 -4.5t-8 -1.5q-8 0 -14 6l-194 193q-6 6 -6 14.5t6 14.5t14.5 6t14.5 -6l194 -193q4 -4 5.5 -9.5t0 -10.5t-5.5 -9z" />
    <glyph glyph-name="uniE650" unicode="&#xe650;" 
d="M689 53q-48 0 -83 -33l-291 222q15 26 15 57q0 6 -1 12l-2 12q-1 6 -2.5 11.5t-4.5 10.5l-5 11l296 226q33 -30 78 -30q49 0 84 35t35 84.5t-35 84.5t-84 35q-32 0 -59.5 -16t-43.5 -43.5t-16 -60.5q0 -11 2 -21.5t6 -20.5t9 -19l-294 -225q-35 33 -82 33q-50 0 -85 -35
t-35 -84.5t35 -84t85 -34.5q47 0 82 33l291 -223q-7 -13 -10.5 -27t-3.5 -29q0 -49 35 -84t84 -35q33 0 60 16t43 43.5t16 59.5q0 49 -35 84t-84 35zM689 754q34 0 58.5 -24.5t24.5 -58.5t-24.5 -58t-58.5 -24t-58 24t-24 58t24 58.5t58 24.5zM211 216q-35 0 -59 24.5
t-24 58.5t24 58t58.5 24t58.5 -24t24 -58q0 -17 -6.5 -32t-17.5 -26.5t-26.5 -18t-31.5 -6.5zM689 -148q-34 0 -58 24t-24 58t24 58t58 24t58.5 -24t24.5 -58t-24.5 -58t-58.5 -24z" />
    <glyph glyph-name="uniE65D" unicode="&#xe65d;" 
d="M512 754q-120 0 -204.5 -86.5t-84.5 -209.5q0 -206 200 -495q50 -71 89 -117q12 14 31.5 38.5t69 98.5t88 144.5t69.5 163t31 167.5q0 123 -84.5 209.5t-204.5 86.5zM512 320q-48 0 -82 34.5t-34 83.5t34 84t82 35q19 0 36.5 -6t32 -17t25 -25.5t16.5 -33t6 -37.5
q0 -14 -3 -27t-9 -25t-14 -22t-18 -18t-21.5 -14t-24.5 -9t-26 -3z" />
    <glyph glyph-name="uniE65E" unicode="&#xe65e;" 
d="M673 707l-292 -234h-234v-350l234 -59l292 -175v818zM731 415h59l58 -59v-116l-58 -59h-59v59h59v116h-59v59z" />
    <glyph glyph-name="uniE661" unicode="&#xe661;" 
d="M525 301l393 395q5 5 5 12.5t-5 13t-13 5.5t-13 -5l-393 -395l-392 395q-6 5 -13.5 5t-13 -5.5t-5.5 -13t5 -12.5l393 -395l-393 -394q-3 -4 -4.5 -8.5t0 -9.5t5.5 -8q5 -6 12.5 -6t13.5 6l392 394l393 -394q3 -3 6 -4.5t7 -1.5t7 1.5t6 4.5q5 5 5 12.5t-5 13.5z" />
    <glyph glyph-name="uniE665" unicode="&#xe665;" 
d="M343 680q-72 -30 -127 -85q-56 -56 -86 -127q-32 -74 -32 -156q0 -81 32 -155q30 -71 86 -127q55 -55 127 -85q75 -32 156 -32q82 0 157 32q72 30 127 85q56 56 86 127q32 74 32 155q0 82 -32 156q-30 71 -86 127q-55 55 -127 85q-75 32 -157 32q-81 0 -156 -32zM355 -36
q-67 30 -120 81q-52 53 -82 120q-29 70 -29 145q0 77 29 147q30 67 82 120q53 51 120 80q70 30 146 30q78 0 148 -30q67 -29 120 -80q52 -53 81 -120q30 -70 30 -147q0 -75 -30 -145q-29 -67 -81 -120q-53 -51 -120 -81q-70 -29 -148 -29q-76 0 -146 29zM649 539
q-19 -6 -39 -32q-26 -35 -32 -58q-8 -29 15 -48q2 -2 4 -6q4 -8 3 -19q-1 -16 -12 -36q-13 -25 -42 -55q-60 -63 -101 -67q-13 -1 -23 4q-4 1 -6 4q-13 13 -26 16q-11 4 -23 0q-11 -3 -25 -12q-6 -5 -28 -20q-15 -12 -24 -23q-9 -12 -13 -23q-3 -13 2 -27q4 -13 17 -29
q24 -29 63 -28q35 0 80 22q38 18 78 48q34 25 61 51q6 5 15 15q18 18 35 36q54 59 73 94l16 30q18 34 22 66q4 35 -10 59q-3 4 -8 10q-11 12 -27 21q-24 14 -45 7z" />
    <glyph glyph-name="uniE667" unicode="&#xe667;" 
d="M849 107q-22 -67 -57 -118q-11 -16 -18 -25.5t-17.5 -23t-20 -21.5t-21 -16t-24 -12t-26.5 -4q-9 0 -17 1t-15 3t-14 4.5t-13 5t-12.5 5.5t-14 5.5t-15 4.5t-17 3t-19.5 1q-26 0 -49 -8t-44 -16.5t-42 -9.5q-13 -1 -26 3t-25 12.5t-22 17t-21 22.5t-18.5 24.5t-18.5 25.5
q-38 55 -62 125t-24.5 151t34.5 141q27 47 72.5 75t98.5 29q29 0 76 -18t60 -18q9 0 23 4.5t29 10.5t32 12t37 9.5t38 1.5q7 0 14.5 -1t19 -3.5t22.5 -6t24 -10t25 -14.5t24 -20t22 -27q-90 -61 -89 -158q0 -35 12 -65t26.5 -47.5t33.5 -31.5t27 -17.5t12 -5.5zM634 581
q50 62 43 133q-31 -1 -65.5 -18.5t-56.5 -44.5q-22 -25 -35.5 -60t-8.5 -68q33 -2 66.5 14.5t56.5 43.5z" />
    <glyph glyph-name="uniE668" unicode="&#xe668;" 
d="M181 305q57 23 103.5 31.5t83 1.5t62 -18t55.5 -32l-80 -273q-31 21 -55 32.5t-61 19t-83.5 -0.5t-103.5 -32l78 270zM526 262q31 -20 55 -31.5t60 -19t82.5 -1t104.5 26.5l-76 -263q-29 -12 -55.5 -20t-49.5 -11.5t-42.5 -4.5t-38 2.5t-33.5 7.5t-31 12t-27.5 15
t-26.5 17zM498 338q-38 26 -72.5 40t-77.5 14q-62 1 -155 -38l79 272q57 24 103.5 32t83.5 1t62 -18.5t55 -32.5zM922 562q-23 -10 -45 -17t-41 -11t-36.5 -6t-33.5 -1.5t-30 2t-27.5 6t-24.5 8.5t-23.5 10.5t-22 12.5t-20.5 14l-79 -272q31 -21 57 -32.5t63 -19t83.5 1
t101.5 33.5z" />
    <glyph glyph-name="uniE69E" unicode="&#xe69e;" 
d="M694 685l-440 -431l165 -161l441 430zM227 66h165l-165 161v-161zM71 -86h856v38h-856v-38z" />
    <glyph glyph-name="uniE6DE" unicode="&#xe6de;" 
d="M887 195l-353 350l-1 1h-1v1q-18 17 -39 4q-4 -2 -6 -5l-350 -353q-5 -5 -7.5 -11t-2.5 -12t2.5 -12t7.5 -10q3 -3 6.5 -5t7.5 -3t8 -1q14 0 23 9l328 331l332 -330q10 -9 23 -9q6 0 12 2.5t11 7.5q3 3 5.5 8t3 9.5t0 9.5t-3 9.5t-6.5 8.5z" />
    <glyph glyph-name="uF004D" unicode="&#xf004d;" 
d="M438 582l-69 -69l223 -208l-214 -215l64 -67l279 279z" />
    <glyph glyph-name="uF00BC" unicode="&#xf00bc;" 
d="M422 290l62 -61q17 -17 34 0l56 56l284 -219v-24q0 -24 -24 -24h-679q-24 0 -24 24v24zM131 101v459q0 8 5 14l268 -266zM160 584h674q4 0 7 -1l-323 -320q-17 -17 -34 0zM858 560v-459q-152 114 -266 201q152 151 266 263v-5z" />
    <glyph glyph-name="uF0105" unicode="&#xf0105;" 
d="M711 308q-14 2 -18.5 8t-0.5 11l3 4q1 3 3 6.5t5 14.5t4 22t-3.5 24.5t-15.5 23.5q-13 14 -34.5 18t-42.5 0.5t-40.5 -8.5t-31.5 -10l-12 -6q-8 -2 -14 -3t-9.5 -1t-5.5 2t-3 4.5t-0.5 7t1.5 8t2.5 11t2.5 11.5q0 15 -2.5 27t-10.5 25.5t-21 20.5t-38 6.5t-58 -11.5
t-67 -34t-59.5 -47t-46.5 -47.5t-32 -37.5t-11 -15q-31 -41 -46 -82.5t-15 -61.5v-21q5 -46 27.5 -82t53.5 -59t73 -38.5t80.5 -23t81.5 -10.5q53 -4 110 5t110 29.5t96 55t64 78.5q11 25 14.5 47t0 39t-12 31t-19 24t-22.5 17t-22 11t-18 6zM421 10q-103 -5 -175 40
t-72 114q0 68 71.5 117.5t175.5 54.5q33 1 65 -2.5t59.5 -11.5t50 -20.5t38.5 -28.5t25 -36.5t9 -42.5q0 -73 -78 -128q-73 -52 -169 -56zM393 275q-28 -3 -49.5 -13t-34 -22.5t-21 -28.5t-12 -29t-4.5 -26.5t-0.5 -18.5t0.5 -7v-2q0 -2 0.5 -7t2 -9.5t4 -11t6.5 -12t10 -11
t14 -9.5q23 -13 47.5 -18.5t47 -3.5t43 9.5t37.5 20t30 29.5q16 20 17.5 51.5t-10.5 60t-45.5 46.5t-82.5 12zM359 93q-13 -1 -23.5 3t-16.5 12t-6 19q0 17 12.5 31t30.5 16q22 2 35.5 -9t13.5 -27t-13.5 -29t-32.5 -16zM440 163q-5 -3 -9.5 -4t-8.5 0.5t-6 5.5
q-2 3 -2.5 6.5t0 7t2.5 7t6 5.5q3 3 7 4t7.5 1t6 -2t4.5 -5q3 -6 1 -13.5t-8 -12.5zM778 364q8 0 14.5 5.5t7.5 13.5v2q4 31 -1 54.5t-15.5 36.5t-24.5 22t-28.5 11.5t-26.5 3t-20 -0.5l-7 -1q-9 0 -16 -7t-7 -16q0 -6 3 -11.5t8.5 -8.5t11.5 -3q75 17 80 -49l-2 -30
q5 -19 23 -22zM762 629q-48 11 -113 -2h-1l-2 -1l-1 -1q-10 -2 -16.5 -11t-6.5 -20q0 -9 4 -17t11.5 -12t16.5 -4q18 2 30 7q5 0 16.5 1.5t31 -3.5t39 -12.5t40.5 -25t35 -41.5q25 -57 10 -109q-6 -17 -6 -32q0 -7 2.5 -12.5t7 -9.5t10.5 -6t12 -2q14 0 21.5 5t10.5 23
q17 53 13 96.5t-18.5 75.5t-40.5 55.5t-52 37t-54 20.5z" />
    <glyph glyph-name="uF0106" unicode="&#xf0106;" 
d="M738 297q-12 -12 -12 -28t12 -27q12 -12 29 -12t29 12q11 11 11 27t-11 28q-12 11 -29 11t-29 -11zM778 269q0 -10 -11 -10t-11 10q0 11 11 11t11 -11zM575 297q-12 -12 -12 -28t12 -27q12 -12 28 -12q17 0 29 12q12 11 12 27t-12 28q-12 11 -29 11q-16 0 -28 -11z
M614 269q0 -10 -11 -10t-11 10q0 11 11 11t11 -11zM456 507q-12 -11 -12 -27t12 -28q12 -11 29 -11t28 11q12 12 12 28t-12 27q-11 12 -28 12t-29 -12zM496 480q0 -11 -11 -11t-11 11q0 10 11 10t11 -10zM237 507q-12 -11 -12 -27t12 -28q12 -11 29 -11t29 11q12 12 12 28
t-12 27q-12 12 -29 12t-29 -12zM277 480q0 -11 -11 -11t-11 11q0 10 11 10t11 -10zM491 357q-78 -64 -78 -156q0 -104 78 -164q73 -56 191 -56q31 0 95 15l86 -45l-24 76q56 40 79 72q32 44 32 102q0 102 -81 163q-75 58 -187 58t-191 -65zM851 342q69 -53 69 -141
q0 -49 -26 -85q-21 -29 -72 -66q-17 -12 -11 -31l3 -10l-23 13q-7 3 -14 3q-4 0 -8 -1q-59 -14 -87 -14q-53 0 -97 13q-44 12 -75 36q-32 25 -49 59q-18 37 -18 83q0 79 68 134q70 58 171 58t169 -51zM151 574q-93 -75 -93 -183q0 -120 126 -205l-31 -91l110 53
q81 -15 111 -15q13 0 29 1q-10 32 -10 64q0 99 78 169q79 71 191 71q14 0 30 -2q-20 92 -111 152q-91 61 -207 61q-131 0 -223 -75zM564 565q61 -41 87 -99q-120 -4 -203 -82q-84 -78 -84 -186q0 -18 3 -36q-27 0 -80 11q-13 2 -18 3q-3 1 -6 1q-7 0 -13 -3l-46 -23l9 26
q6 20 -12 33q-113 76 -113 181q0 95 82 161q40 32 91 50q54 19 113 19q107 0 190 -56z" />
    <glyph glyph-name="uF0117" unicode="&#xf0117;" 
d="M499 509l-451 -336v-69l451 336l449 -340v69z" />
    <glyph glyph-name="uF0118" unicode="&#xf0118;" 
d="M646 296q-11 -10 -20 -17l-2 2q1 8 1 20q-2 22 -13 33q-6 6 -28 27l-43 43q-19 18 -40 39q-11 11 -18 17l91 91q86 -84 99 -97q12 -11 17 -19q7 -12 8 -29q2 -20 -1 -33q-4 -18 -17 -38q-13 -18 -34 -39zM417 73q-105 102 -112 109t-11 20q-5 17 -2 37t11 36q6 12 17 28
q9 12 27 27q9 8 16 13h3q-1 -1 -1 -5q-1 -8 2 -21q2 -14 10 -25l23 -23q7 -6 25 -24q15 -14 36 -35q15 -14 32 -31q9 -8 14 -14zM914 451q-10 17 -29 41q-39 48 -104 91q-34 21 -87 41q-17 6 -34 11q-8 2 -13 3q-283 -276 -305 -297q-26 -25 -37 -40q-21 -27 -24 -53
q-3 -25 0 -43q2 -9 3 -13h-3q-10 10 -23 27q-25 33 -39 65q-7 19 -9 40q-2 20 2 39q4 20 13 37t22 29q12 12 51 50q32 30 79 76q34 33 73 71q19 18 32 30q-14 0 -33 -2q-39 -4 -70 -11q-40 -10 -69 -21q-32 -12 -70 -33q-36 -19 -65 -44q-21 -18 -52 -52q-14 -16 -27 -39
q-15 -26 -25 -55q-12 -32 -16 -64q-5 -35 1 -66q11 -58 39 -106q21 -36 53 -68q28 -27 61 -50q34 -23 68 -38q45 -20 63 -24q309 302 321 314q23 23 37 45q9 16 12 36q2 10 1 25q0 7 -2 19q-1 7 -2 12q4 -4 10 -12q13 -15 25 -31q15 -22 24 -43q12 -26 14 -48q1 -23 -3 -42
q-3 -16 -12 -31q-7 -12 -19 -26l-23 -23q-11 -12 -49 -48q-30 -30 -75 -74q-33 -32 -70 -68q-19 -17 -31 -29q9 -1 23 0q27 0 55 4q62 8 116 28q77 28 131 71q31 26 52 48q21 23 36 49q18 31 28 57q12 33 14 68q1 36 -3 65q-4 27 -14 55q-10 27 -22 47z" />
    <glyph glyph-name="uF0119" unicode="&#xf0119;" 
d="M884 280q0 -26 -19 -44q-18 -19 -45 -19h-642q-26 0 -45 19q-19 18 -19 44v283q0 26 19 45q19 18 45 18h642q27 0 45 -18q19 -19 19 -45v-283zM114 689q-26 0 -45 -18q-19 -19 -19 -45v-534q0 -26 19 -45q19 -18 45 -18h296q-50 -28 -87 -63q-20 0 -34 -9
q-14 -10 -14 -23t14 -22t34 -9h385q20 0 34 9t14 22t-14 23q-14 9 -34 9q-36 35 -86 63h262q27 0 46 18q18 19 18 45v534q0 26 -18 45q-19 18 -46 18h-770z" />
    <glyph glyph-name="uF0120" unicode="&#xf0120;" 
d="M188 771q-57 0 -97 -42q-41 -43 -41 -103v-651q0 -60 41 -103q40 -42 97 -42h623q58 0 98 42q41 43 41 103v651q0 60 -41 103q-40 42 -97 42h-624zM812 688q24 0 41 -18t17 -44v-651q0 -26 -17 -44t-41 -18h-624q-24 0 -41 18t-17 44v651q0 26 17 44t41 18h624zM271 550
h457v-108h-457v108zM271 355h457v-109h-457v109zM271 159h457v-108h-457v108z" />
    <glyph glyph-name="uF0121" unicode="&#xf0121;" 
d="M194 139q29 -83 106 -125q16 -9 36 -15q16 -6 19 -20q4 -13 -9 -26l-36 -36q-25 -24 -37 -36q-13 -13 -28 -8q-17 6 -18 25v11v11q0 10 -2 12q-2 1 -11 -2q-14 -5 -41 -14t-41 -13q-14 -5 -24 0q-18 11 -11 33q5 16 14 41l14 42t1 11q-1 1 -11 1l-23 1q-18 1 -24 17
q-6 15 6 27l76 76q8 8 18 7q19 0 26 -20zM744 542q-30 30 -70 31q-44 1 -74 -27q-32 -30 -33 -76q0 -39 30 -70q31 -31 71 -31q43 0 74 29q30 30 31 73q0 41 -29 71zM898 435q-56 -144 -162 -240q-8 -8 -7 -19q1 -13 3 -38q3 -24 4 -37q9 -88 -62 -139q-38 -27 -155 -103
q-24 -16 -49 -4t-27 41q-5 51 -11 133q-1 17 -4 20t-19 5q-88 12 -133 84q-23 35 -27 83q-1 11 -13 12q-83 4 -140 8q-29 3 -41 27q-12 25 4 51q-1 -1 45 70q7 12 24 38q16 25 25 38q45 71 127 72q14 0 94 -9q10 -1 15 5q102 114 265 172q87 31 178 40q55 6 93 -1
q12 -2 15 -5t5 -15q5 -30 4 -49q-4 -119 -51 -240z" />
    <glyph glyph-name="uF0122" unicode="&#xf0122;" 
d="M582 266q-20 0 -33 -14q-14 -13 -14 -33v-161q0 -86 61 -147t147 -61t147 61t61 147t-61 147t-147 61h-161zM743 231q72 0 122 -51q51 -50 51 -122t-51 -122q-50 -51 -122 -51t-122 51q-51 51 -51 122v161q0 12 12 12h161zM596 690q-61 -61 -61 -147v-161q0 -20 14 -33
q13 -14 33 -14h161q86 0 147 61t61 147t-61 147t-147 61t-147 -61zM865 665q51 -50 51 -122t-51 -122q-50 -51 -122 -51h-161q-12 0 -12 12v161q0 72 51 122q50 51 122 51t122 -51zM258 266q-86 0 -147 -61t-61 -147t61 -147t147 -61t147 61t61 147v161q0 20 -14 33
q-13 14 -33 14h-161zM419 231q12 0 12 -12v-161q0 -71 -51 -122q-50 -51 -122 -51q-71 0 -122 51q-51 50 -51 122t51 122q50 51 122 51h161zM111 690q-61 -61 -61 -147t61 -147t147 -61h161q20 0 33 14q14 13 14 33v161q0 86 -61 147t-147 61t-147 -61zM380 665
q51 -50 51 -122v-161q0 -12 -12 -12h-161q-72 0 -122 51q-51 50 -51 122t51 122q50 51 122 51t122 -51z" />
    <glyph glyph-name="uF0123" unicode="&#xf0123;" 
d="M609 535l-72 -131q-28 -53 -35 -71h-1q-19 43 -106 202h-67l125 -214h-103v-48h120v-65h-120v-48h120v-95h60v95h116v48h-116v65h116v48h-100l126 214h-63zM216 16q-118 118 -118 284t118 284t284 118t284 -118t118 -284t-118 -284t-284 -118t-284 118zM182 618
q-132 -132 -132 -318t132 -318t318 -132t318 132t132 318t-132 318t-318 132t-318 -132z" />
    <glyph glyph-name="uF0124" unicode="&#xf0124;" 
d="M599 -110v208q69 34 103 104h208q-27 -115 -111 -200q-86 -85 -200 -112zM429 86q35 -11 71 -11t71 11v-202q-37 -6 -71 -6q-36 0 -71 6v202zM89 202h209q34 -70 103 -104v-208q-115 27 -200 112q-84 85 -112 200zM401 710v-208q-70 -35 -103 -103h-209q28 115 112 200
q84 84 200 111zM571 514q-35 11 -71 11t-71 -11v202q37 6 71 6q35 0 71 -6v-202zM84 230q-6 35 -6 71q0 35 6 70h202q-11 -35 -11 -70q0 -37 11 -71h-202zM361 161q-58 58 -58 139t58 139q57 58 139 58q81 0 139 -58q58 -57 58 -139q0 -81 -58 -139t-139 -58q-82 0 -139 58z
M916 230h-202q11 33 11 71q0 35 -11 70h202q6 -34 6 -70t-6 -71zM910 399h-208q-33 68 -103 103v208q115 -27 200 -111q84 -85 111 -200zM818 618q-62 63 -143 97q-84 35 -175 35t-175 -35q-81 -35 -143 -97t-97 -143q-35 -84 -35 -175t35 -175q35 -81 97 -143t143 -97
q83 -35 175 -35t175 35q81 35 143 97t97 143q35 83 35 175t-35 175q-35 81 -97 143z" />
    <glyph glyph-name="uF0125" unicode="&#xf0125;" 
d="M793 108l-41 -93q-11 -26 -37 -36q-26 -11 -52 -1l-135 53l186 -321q6 -12 20 -10q4 1 8 3q7 4 10 12l36 135l135 -36q13 -4 22 7q8 11 1 23zM271 15l-51 116l-167 -287q-7 -12 2 -23q8 -11 22 -7l134 36l37 -135q2 -8 9 -12q4 -2 8 -3q14 -2 21 10l179 309l-105 -41
q-12 -5 -25 -5q-46 0 -64 42zM579 441l6 -47v-3q0 -21 -21 -21v0q-5 0 -9 2l-43 20l-44 -20q-11 -6 -21 2q-11 7 -9 19l6 48l-33 35q-8 9 -5 21q4 11 16 14l48 9l23 42q6 11 19 11q12 0 18 -11l23 -42l48 -9q12 -3 16 -14q4 -12 -5 -21zM347 631q-68 -68 -68 -164t68 -163
q68 -68 165 -68q96 0 164 68q68 67 68 163t-68 164q-68 67 -164 67q-97 0 -165 -67zM321 277q-80 79 -80 190t80 190q79 79 191 79q111 0 190 -79q80 -79 80 -190t-80 -190q-79 -78 -190 -78q-112 0 -191 78zM893 467l53 133q9 23 -1 46q-9 22 -32 32l-131 58l-58 130
q-10 23 -33 32q-23 10 -46 1l-133 -52l-134 52q-23 9 -46 -1q-23 -9 -33 -32l-58 -130l-131 -58q-23 -10 -32 -32q-10 -23 -1 -46l53 -133l-53 -133q-9 -23 1 -46q9 -22 32 -32l131 -57l58 -131q16 -37 56 -37q12 0 23 4l134 52l133 -52q23 -9 46 1q23 9 33 32l58 131
l131 57q23 10 32 32q10 23 1 46z" />
    <glyph glyph-name="uF0126" unicode="&#xf0126;" 
d="M183 294l17 38l59 -80q39 10 53 -16q13 -16 7 -45q8 -6 9 -10q26 7 42 -14q15 -12 13 -36q11 -5 13 -12q26 7 39 -9q15 -16 14 -34l25 -19q22 -2 26 -20l22 -17q8 -4 17 -3q18 2 19 25l-81 66q-3 7 -1 13q2 12 21 10l122 -92q20 -9 32 11q12 18 -5 37l-130 99q-2 7 -2 14
q2 13 20 12l154 -116q22 -9 31 8q13 18 0 35l-170 132q-2 8 -1 15q3 14 23 9l175 -133q27 -9 39 14q15 25 -6 45l-247 230q-12 6 -27 6q-30 -1 -47 -32q-1 -19 -13 -41q-23 -44 -75 -53q-14 1 -27 7q-25 13 -17 37q17 24 15 73q2 36 25 66h-89l20 43h135q55 34 97 31
q54 -4 69 -12q72 -25 104 -19l121 -266l-19 -46q9 -10 14 -26q11 -31 -5 -60q-14 -30 -56 -32q4 -32 -17 -49q-16 -23 -54 -17q2 -28 -23 -46q-7 -7 -21 -10q-26 -5 -55 16q-7 -32 -44 -38q-27 -5 -43 12q-7 -15 -19 -25q-24 -20 -49 0q-7 5 -11 15q-8 19 3 39
q-9 -14 -22 -23q-28 -18 -53 9q-6 4 -9 13q-6 19 7 42q-8 -9 -20 -15q-25 -10 -48 12q-6 5 -9 15q-8 21 4 45q-8 -10 -21 -16q-26 -11 -50 14q-16 16 -7 51l37 54zM934 318q6 3 11 9q9 12 2 28l-129 275q-10 24 -30 15l-55 -28q-18 -8 -9 -31q6 -5 130 -281q12 -20 28 -12z
M111 294q6 -4 13 -4q15 -1 22 16l125 277q12 23 -7 34l-55 29q-17 10 -29 -11q0 -9 -127 -282q-8 -23 8 -32z" />
    <glyph glyph-name="uF0127" unicode="&#xf0127;" 
d="M559 654h-43v42h43v-42zM658 682h-43v14h43v-14zM615 640v28h57v42h-71v-70h14zM573 710h-71v-70h71v70zM430 541h142v44h-142v-44zM473 710h-14v-28h-29v28h-14v-70h14v28h29v-28h14v70zM388 682h-43v14h43v14h-57v-42h43v-14h-43v-14h57v42zM860 299q-31 0 -52 21
q-21 -21 -51 -21q-26 0 -46 16q-5 4 -10 0q-20 -16 -46 -16t-46 16q-6 4 -11 0q-20 -16 -46 -16t-46 16q-5 4 -10 0q-20 -16 -46 -16t-46 16q-5 4 -11 0q-20 -16 -46 -16t-46 16q-5 4 -10 0q-20 -16 -46 -16t-46 16h-10q-20 -16 -47 -16q-21 0 -40 12q-24 16 -30 45
q-6 28 10 53l1 1l98 128q2 3 6 3h202v44h-60q-22 0 -38 16q-16 15 -16 37v59q0 22 16 37q16 16 38 16h346q22 0 38 -16q16 -15 16 -37v-59q0 -22 -16 -37q-16 -16 -38 -16h-61v-44h201q4 0 6 -3l98 -129h1q16 -25 10 -53q-6 -29 -30 -45q-19 -12 -40 -12zM294 155
q8 -8 8 -19q0 -12 -8 -19q-8 -8 -20 -8q-11 0 -19 8q-8 7 -8 19q0 11 8 19q8 7 19 7q12 0 20 -7zM801 233h-363v-206h363v206zM396 233h-193v-206h193v206zM842 -14h-680v288h680v-288zM50 -150v20q0 44 35 69q29 21 74 21h682q45 0 74 -21q35 -25 35 -69v-20h-900z" />
    <glyph glyph-name="uF0128" unicode="&#xf0128;" 
d="M787 17q117 117 117 283t-117 283t-283 117t-283 -117t-117 -283t117 -283t283 -117t283 117zM818 618q132 -132 132 -318t-132 -318t-318 -132t-318 132t-132 318t132 318t318 132t318 -132zM440 534q14 0 24 -9l201 -201q9 -10 9 -24t-10 -24l-201 -201q-9 -9 -23 -9
t-24 9q-10 10 -10 24t10 24l177 177l-177 177q-10 10 -10 24t10 24q10 9 24 9z" />
    <glyph glyph-name="uF0129" unicode="&#xf0129;" 
d="M263 99l216 -237q11 -12 26 -12t25 12l217 237q25 27 0 56q-11 11 -26 11t-26 -11l-190 -210l-191 210q-11 11 -26 11t-25 -11q-26 -29 0 -56zM263 483l216 -237q11 -12 26 -12t25 12l217 237q25 28 0 56q-11 11 -26 11t-26 -11l-190 -209l-191 209q-11 11 -26 11
t-25 -11q-26 -28 0 -56z" />
    <glyph glyph-name="uF0130" unicode="&#xf0130;" 
d="M344 604q0 18 13 31q13 12 31 12h225q17 0 30 -12q13 -13 13 -31v-104h60v104q0 43 -30 73q-31 31 -73 31h-225q-43 0 -74 -31q-30 -30 -30 -73v-104h60v104zM50 -26q0 -31 22 -52q21 -22 52 -22h56v562h-56q-31 0 -52 -22q-22 -21 -22 -52v-414zM630 304h-166v-59h166
v59zM820 462v-562h56q31 0 52 22q22 21 22 52v414q0 31 -22 52q-21 22 -52 22h-56zM368 346l31 -23l-41 -127h23v-180h-40v171l-19 14zM415 135v36h113v41h-102v128h244v-128h-104v-41h112v-36h-48l48 -106l-33 -13l-53 119h-26v-119h-38v119h-26l-55 -119l-34 11l49 108
h-47zM223 -100h554v562h-554v-562z" />
    <glyph glyph-name="uF0131" unicode="&#xf0131;" 
d="M204 564l-154 -186h110v-338h494l-99 98h-285v240h109l-153 186h-22zM346 564l99 -99h286v-240h-110l153 -185h22l154 185h-110v339h-494z" />
    <glyph glyph-name="uF0132" unicode="&#xf0132;" 
d="M500 229q-10 -4 -59 -27q-49 -24 -74 -32q8 26 34 71q25 45 28 57q367 357 355 345q24 23 48 23q8 0 12 -6q6 -12 11 -17q7 -6 18 -12q6 -3 6 -11q0 -22 -24 -46q10 5 -355 -345zM907 700q-37 35 -81 35q-49 0 -88 -37q-12 -13 -375 -365q-4 -4 -6 -10q3 10 -60 -194
q-4 -13 6 -22q7 -7 16 -7q4 0 7 1q86 29 196 61q5 2 9 6q373 357 378 362q42 43 41 87t-43 83zM737 -71h-616v668h403l47 69h-474q-21 0 -35 -21q-12 -19 -12 -44v-688q0 -22 16 -37q16 -16 39 -16h653q22 0 38 16q16 15 16 37v390l-75 -51v-323z" />
    <glyph glyph-name="uF0133" unicode="&#xf0133;" 
d="M657 171q16 -21 15 -45q-19 -14 -50 -16q-11 -1 -31 0q-26 1 -35 1h-256q-15 20 -14 45q8 6 14 15h357zM925 201q15 -21 15 -45q-5 -4 -57 -75q-18 -25 -58 -72q-40 -48 -58 -73q-4 -6 -14 -22q-8 -15 -15 -22q-19 -22 -51 -22q3 -4 -79 75q-55 53 -55 91q21 15 45 15
q10 -14 51 -54q43 -42 53 -46q6 11 19 25q15 18 20 23q18 26 56 77q37 50 57 77q5 8 21 24q14 15 20 24h30zM657 351q16 -20 15 -45q-19 -14 -50 -16h-31q-26 1 -35 1h-256q-15 21 -14 45q8 6 14 15h357zM657 532q16 -21 15 -45q-19 -14 -50 -16q-11 -1 -31 0q-26 1 -35 1
h-256q-15 20 -14 45q8 6 14 15h357zM663 742q8 0 57 2q37 0 58 -1q65 -4 85 -31q17 -25 17 -138v-298q-3 -3 -9 -7l-8 -8q-37 0 -42 31q0 -1 0 71v289q-3 4 -6 18q-25 15 -89 15q-19 0 -54 -2q-36 -1 -50 -1h-322q-153 0 -181 -6q-14 -26 -14 -90q-1 -19 1 -55q1 -36 1 -50
v-325q0 -155 6 -184q22 -12 107 -12h211q7 0 30 1q22 1 34 1q40 0 49 -14q9 -11 5 -27q-5 -16 -17 -21h-419q-54 16 -64 83q-1 9 -1 143v391q0 161 3 168q8 20 26 33q4 3 18 11q11 7 18 13h550z" />
    <glyph glyph-name="uF0134" unicode="&#xf0134;" 
d="M821 -30q22 -23 22 -54q0 -32 -22 -54t-53 -22t-53 22t-22 54q0 31 22 54q22 22 53 22t53 -22zM203 -34q18 -19 18 -46t-18 -46q-19 -19 -46 -19q-26 0 -45 19t-19 46t19 46t45 19q27 0 46 -19zM243 397q-9 0 -15 7q-7 6 -7 15v22q0 9 7 15q6 6 15 6h386q9 0 15 -6t6 -15
v-22q0 -9 -6 -15q-6 -7 -15 -7h-386zM243 224q-9 0 -15 6q-7 7 -7 16v21q0 9 7 16q6 6 15 6h386q9 0 15 -6q6 -7 6 -16v-21q0 -9 -6 -16q-6 -6 -15 -6h-386zM886 701q-27 0 -46 -19q-18 -19 -18 -46v-455q0 -54 -38 -92q-38 -39 -91 -39h-514q-54 0 -91 39q-38 38 -38 92
v325q0 54 38 92q37 38 91 38h450q9 0 15 -6q6 -7 6 -16v-21q0 -9 -6 -16q-6 -6 -15 -6h-450q-27 0 -46 -19t-19 -46v-325q0 -27 19 -46q19 -20 46 -20h514q27 0 46 20q18 19 18 46v455q0 54 38 92t91 38h43q9 0 15 -6q6 -7 6 -16v-21q0 -9 -6 -16q-6 -6 -15 -6h-43z" />
    <glyph glyph-name="uF0135" unicode="&#xf0135;" 
d="M606 232q14 0 24 10t10 25q0 14 -10 24t-24 10h-46l51 53q10 10 10 24t-10 25q-10 10 -23 10q-14 0 -24 -10l-64 -66l-63 66q-10 10 -24 10t-24 -10q-9 -11 -9 -25t9 -24l52 -53h-47q-14 0 -24 -10t-10 -24q0 -15 10 -25t24 -10h72v-37h-75q-14 0 -24 -10t-10 -25
q0 -14 10 -24t24 -10h75v-66q0 -14 10 -24t24 -10t24 10q9 10 9 24v66h70q14 0 24 10t10 24q0 15 -10 25t-24 10h-70v37h73zM229 -60q-112 78 -112 221q0 95 88 220q97 138 218 176q-39 20 -65 53q-26 31 -26 58q0 35 49 53q44 16 119 16t119 -16q49 -18 49 -53
q0 -27 -26 -58q-26 -33 -65 -53q121 -38 218 -176q88 -125 88 -220q0 -143 -112 -221q-103 -71 -271 -71t-271 71zM735 668q0 54 -41 88q-59 50 -194 50q-92 0 -151 -24q-84 -35 -84 -114q0 -48 36 -96q-108 -72 -182 -200q-69 -119 -69 -211q0 -165 122 -263
q123 -98 328 -98t327 98q123 98 123 263q0 92 -69 211q-74 128 -182 200q36 48 36 96z" />
    <glyph glyph-name="uF0136" unicode="&#xf0136;" 
d="M211 554l-161 -182h118v-332h482l-96 96h-279v236h107l-150 182h-21zM789 51l161 182h-118v332h-482l96 -96h279v-236h-107l150 -182h21zM400 282l17 47q1 3 2 8h1q1 -5 1 -8l18 -47h-39zM428 352h-16l-43 -114h16l11 31h47l12 -31h16zM518 339q26 0 26 -22q0 -11 -7 -17
t-20 -6h-14v45h15zM518 281q18 -1 30 10q12 10 12 27q0 16 -10 25q-11 9 -29 9h-32v-114h14v43h15zM611 352h-37v-13h11v-88h-11v-13h37v13h-11v88h11v13z" />
    <glyph glyph-name="uF0137" unicode="&#xf0137;" 
d="M303 356q-12 0 -20 -9q-8 -8 -8 -19v-57q0 -11 8 -19q8 -9 20 -9h393q12 0 20 9q8 8 8 19v57q0 11 -8 19q-8 9 -20 9h-393zM303 580q-12 0 -20 -8t-8 -20v-56q0 -11 8 -20q8 -8 20 -8h393q12 0 20 8q8 9 8 20v56q0 12 -8 20t-20 8h-393zM893 188q0 -41 -8 -49
q-7 -7 -48 -7h-673q-43 0 -49 7q-8 7 -7 49v448q0 42 7 49t49 7h673q40 0 48 -8t8 -48v-448zM106 749q-23 0 -40 -16q-16 -17 -16 -40v-562q0 -23 16 -40q17 -16 40 -16h337v-169h-112v-56h337v56h-112v169h337q23 0 40 16q16 17 16 40v562q0 23 -16 40q-17 16 -40 16h-787z
" />
    <glyph glyph-name="uF0138" unicode="&#xf0138;" 
d="M216 380q-18 -28 -28 -58l144 -56q2 37 -3 75q-9 78 -46 87q-33 9 -67 -48zM185 360q51 132 117 205q36 41 75 61q11 6 21 10q-23 -150 -23 -312q0 -137 37 -363l-302 124l12 60q26 118 63 215zM673 562q78 -73 136 -204q31 -71 55 -157q-126 228 -240 228q-10 0 -19 -1
q-112 -21 -150 -392q-25 180 -25 288q0 170 26 324h6q62 0 116 -23q50 -22 95 -63zM504 -35q7 96 20 177q18 108 45 171q14 33 29 50q10 12 17 13q5 1 9 1q34 0 79 -43q44 -43 90 -119q37 -60 69 -132zM950 53q-19 162 -90 324q-142 323 -398 323q-204 0 -328 -323
q-63 -162 -84 -324l396 -163z" />
    <glyph glyph-name="uF0139" unicode="&#xf0139;" 
d="M744 244h112v38h-112v-38zM425 401q23 23 23 56q0 32 -23 55q-24 24 -56 24q-33 0 -56 -24q-23 -23 -23 -55q0 -33 23 -56t56 -23q32 0 56 23zM181 132h375v37h-375v-37zM181 57h375v37h-375v-37zM488 552q49 -50 49 -120q0 -67 -47 -117q-32 53 -121 53t-121 -53
q-48 50 -48 117q0 70 49 120q50 49 120 49t119 -49zM514 286q61 61 61 146q0 86 -61 146q-60 61 -145 61q-86 0 -146 -61q-60 -60 -60 -146q0 -85 60 -146q60 -60 146 -60q85 0 145 60zM706 639v-38h206v-713h-543v-38h548q21 0 29 18q4 10 4 19v718q0 8 -5 17q-9 17 -32 17
h-207zM744 395h112v37h-112v-37zM744 320h112v37h-112v-37zM856 507h-112v-37h112v37zM650 -37h-562v751h562v-751zM687 712q1 10 -4 20q-9 20 -34 20h-561q-25 0 -34 -19q-4 -10 -4 -20v-752q0 -9 4 -18q9 -18 32 -18h567q33 0 34 37v750z" />
    <glyph glyph-name="uF0140" unicode="&#xf0140;" 
d="M96 -15q-10 0 -10 10v232q1 -1 2 -1h116q19 0 19 18t-19 18h-116h-2v257q0 10 10 10h808q10 0 10 -10v-257h-109q-20 0 -20 -18t20 -18h109v-231q0 -10 -10 -10h-808zM377 570q0 18 13 32q13 13 32 13h154q19 0 33 -13q13 -14 13 -32v-5h-245v5zM658 564v6q0 33 -24 56
q-24 24 -58 24h-154q-34 0 -57 -24q-24 -23 -24 -56v-6h-245q-19 0 -33 -13q-13 -13 -13 -32v-524q0 -18 13 -32q14 -13 33 -13h808q19 0 33 13q13 14 13 32v524q0 19 -13 32q-14 13 -33 13h-246zM446 302q-23 -22 -23 -53q0 -32 23 -54t54 -22q32 0 55 22q22 22 22 54
q0 31 -22 53q-23 23 -55 23q-31 0 -54 -23zM421 170q-33 33 -33 79t33 78q33 33 79 33q47 0 80 -33q33 -32 33 -78t-33 -79q-33 -32 -80 -32q-46 0 -79 32zM380 369q-50 -49 -50 -119t50 -119t121 -49t121 49t50 119t-50 119q-50 50 -121 50t-121 -50zM354 106
q-60 60 -60 144q0 85 60 144q61 60 147 60t146 -60q61 -59 61 -144q0 -84 -61 -144q-60 -60 -146 -60t-147 60z" />
    <glyph glyph-name="uF0141" unicode="&#xf0141;" 
d="M440 183q21 -112 48 -155v1l138 161l-91 106zM237 -40h118q-22 33 -38 93zM334 440q-4 0 -4 4q-4 76 -64 151q-3 4 1 6q3 3 6 0q61 -69 66 -156q0 -5 -5 -5v0zM237 283q-1 -4 -5 -4v1q-5 0 -4 5q9 47 57 80q3 3 6 -1q3 -3 -1 -6q-45 -33 -53 -75zM477 402q4 -2 1 -6
q-1 -2 -4 -2q-1 0 -2 1q-39 23 -91 2q-4 -1 -6 3q-1 4 3 6q58 21 99 -4zM480 -40q-9 12 -12 17q-1 1 -2 3q0 1 -1 2q-6 10 -10 19l-1 1q-16 32 -30 68q-1 1 -2 4q-4 12 -6 19q0 -3 -3 6q-3 10 -5 16q-1 3 -3 8q-2 9 -4 15q-56 188 -45 237q1 2 1 5q37 5 87 -3
q127 -19 121 -31q3 6 -28 36q-33 33 -62 45q34 5 130 3q34 -1 35 0q4 4 -14 15q-17 11 -34 16q-56 18 -105 7q-59 -14 -122 -55q0 1 1 1v1q20 52 70 86q10 7 72 39q27 14 27 15q0 5 -23 9q-22 3 -40 1q-57 -5 -85 -37q-17 -20 -29 -50q-5 65 -27 103q-31 53 -93 50
q-13 -1 2 -47q3 -6 48 -86q8 -15 25 -44q-30 35 -63 50q-38 18 -93 1q-17 -6 -36 -17q-19 -13 -17 -17q0 -2 30 -4q70 -4 83 -6q60 -12 99 -52q0 -1 2 -2q-67 25 -125 25q-51 0 -102 -29q-15 -9 -30 -24q-14 -14 -10 -17q1 -1 35 8q145 35 223 18q-63 -13 -90 -65
q-13 -26 -10 -81q4 -50 12 -52q-13 3 53 112q27 44 55 70q-7 -129 28 -278v0q11 -46 25 -89l1 -2q3 -8 4 -14l1 -1q2 -5 11 -28h81zM723 212l-200 -223l20 -29h407z" />
    <glyph glyph-name="uF0142" unicode="&#xf0142;" 
d="M532 -9q1 -24 1 -36t-10 -22t-25 -10q-35 0 -37 33v35h-106q-12 0 -21 11q-8 11 -8 23q1 11 9 20q9 9 20 9h106v73q-86 -1 -102 -1q-12 0 -20 8q-8 7 -8 18q0 12 8 26q10 15 20 15h102l1 26q-82 87 -92 96q-9 9 -12 21q-4 15 6 27q10 11 28 7q15 -4 27 -15q14 -13 79 -81
q76 71 92 84q12 10 26 10t23 -11q16 -19 -12 -45q-20 -18 -94 -94v-24h98q15 0 26 -15q9 -12 8 -24q-1 -28 -34 -28h-98v-72h96q35 0 36 -30q1 -13 -7 -24q-9 -10 -21 -10h-105zM640 596h-288q-55 -82 -143 -158q-84 -73 -126 -169q-48 -111 -26 -229q23 -127 129 -216
q123 -104 311 -104t310 92q112 85 135 221q41 241 -151 402q-98 83 -151 161zM313 725q17 -26 49 -59h264q28 29 45 51q34 47 63 65q22 14 26 37q4 25 -20 35q-16 6 -36 -2q-26 -11 -39 -11q-19 0 -36 15q-23 20 -36 25q-23 9 -41 3q-13 -4 -30 -20q-20 -19 -27 -20
q-24 13 -37 28q-10 11 -31 14q-22 2 -38 -8q-6 -4 -30 -23q-13 -10 -27 -13q-10 -2 -47 9q-32 9 -45 -1q-16 -14 -10 -34q4 -19 22 -31q39 -28 61 -60z" />
    <glyph glyph-name="uF0143" unicode="&#xf0143;" 
d="M545 -340h405q-16 136 -87 246q-74 115 -188 170zM475 -340l-150 416q-114 -55 -188 -170q-71 -110 -87 -246h425zM663 909q11 -4 22 -9l1 -1q1 -1 3 -2t3 -1l1 -1l14 -7v0q4 -2 7 -4l1 -1q7 -4 6 -3l1 -1q4 -2 5 -3l1 -1q4 -3 6 -4l1 -1l5 -3l2 -2q2 -1 4 -3l3 -2
q3 -2 4 -3l2 -1q2 -2 5 -4l2 -2q1 0 2 -1l2 -2l2 -2l3 -3l3 -2l4 -4l2 -1l4 -4l2 -2l2 -2q58 -56 90 -131q34 -77 34 -161q0 -20 -2 -40v0q0 -5 0 -3l-1 -554q-58 109 -166 170q-102 58 -224 60q-122 3 -230 -50q-115 -57 -186 -163v593v3q6 163 124 276q117 114 280 114
q82 0 156 -31v-1zM404 494q12 -12 12 -30q0 -17 -12 -29q-13 -13 -30 -13t-29 13q-13 12 -13 29q0 18 13 30q12 12 29 12t30 -12zM655 494q13 -12 13 -30q0 -17 -13 -29q-12 -13 -29 -13q-18 0 -30 13q-12 12 -12 29q0 18 12 30t30 12q17 0 29 -12zM194 530q0 -130 91 -221
q91 -92 220 -92q84 0 155 42q70 40 112 110q-32 -27 -70 -46q-52 -25 -114 -36q-2 -10 -9 -16q-8 -7 -18 -7h-77q-12 0 -20 9q-8 8 -8 19v13q0 12 8 20t20 8h77q16 0 24 -14q56 10 103 33q69 35 118 98q11 39 11 80v2q-98 48 -155 119q-158 -121 -395 -121q-37 0 -73 3v-3z
" />
    <glyph glyph-name="uF0144" unicode="&#xf0144;" 
d="M602 88l20 -17l80 70l-20 18zM191 279q36 8 60 35t24 61q0 -34 24 -61q23 -27 60 -35v-329h-168v329zM387 275q47 0 80 30q33 29 33 70q0 -41 33 -70q33 -30 79 -30q47 0 80 30q33 29 33 70q0 -34 24 -61q23 -27 60 -35v-329h-422v325zM50 375q0 -34 24 -61t60 -35v-329
h-56q-12 0 -20 -7q-8 -8 -8 -18t8 -18q8 -7 20 -7h843q12 0 20 7q9 8 9 18t-9 18q-8 7 -20 7h-56v329q37 8 61 35t24 61v25h-900v-25zM809 651q12 0 20 7t8 18q0 10 -8 17q-8 8 -20 8h-618q-12 0 -20 -8q-9 -7 -9 -17q0 -11 9 -18q8 -7 20 -7h618zM622 212l-20 18l-79 -71
l20 -18zM682 230l-159 -142l20 -17l159 141zM323 193q-8 7 -20 7t-20 -7t-8 -18q0 -13 14 -21v-58q-14 -7 -14 -21q0 -10 8 -18q8 -7 20 -7t20 7q8 8 8 18q0 14 -14 21v58q14 7 14 21q0 11 -8 18zM781 463q-9 0 -13 7l-56 100q-2 5 -1 10q2 4 7 7q6 2 11 0q6 -1 8 -6
l57 -100q2 -5 0 -10q-2 -4 -7 -7q-3 -1 -6 -1zM668 463q-8 0 -12 6l-61 101q-3 4 -1 9q1 5 6 7q5 3 11 2q6 -2 8 -6l62 -101q3 -4 1 -9t-7 -7q-3 -2 -7 -2zM514 475q0 -5 -4 -8q-4 -4 -10 -4t-10 4q-4 3 -4 8v101q0 5 4 8q4 4 10 4t10 -4q4 -3 4 -8v-101zM344 470
q-4 -7 -13 -7q-3 0 -6 1q-5 3 -7 7q-2 5 1 10l56 100q2 5 8 6q6 2 11 0q5 -3 7 -7q2 -5 -1 -10zM231 470q-4 -7 -12 -7q-4 0 -7 1q-5 3 -7 7q-1 5 1 10l56 100q3 5 9 6q5 2 10 0q5 -3 7 -7q2 -5 0 -10zM837 626h-675l-112 -201h900z" />
    <glyph glyph-name="uF0145" unicode="&#xf0145;" 
d="M551 440q13 13 13 31q0 19 -13 31q-13 13 -31 13q-19 0 -32 -13q-13 -12 -13 -31q0 -18 13 -31t32 -13q18 0 31 13zM332 458q-14 -13 -14 -31t14 -31q13 -13 31 -13q19 0 32 13t13 31t-13 31t-32 13q-18 0 -31 -13zM220 348q-13 -13 -13 -32q0 -18 13 -31t31 -13
q19 0 32 13t13 31q0 19 -13 32t-32 13q-18 0 -31 -13zM426 91l161 23l323 320q20 -61 12 -129q-9 -71 -44 -137q-35 -65 -91 -116q-58 -53 -129 -81q-76 -31 -160 -31q-70 0 -131 24q-65 26 -76 64q-17 59 -23 67q-19 32 -61 22q-63 -14 -109 10q-46 25 -48 79q-3 94 32 175
q33 75 96 134q122 112 308 133q80 9 158 -7t140 -55l-337 -333zM575 193q-13 -13 -111 -63q50 97 64 110l366 363q10 9 23 9q14 0 24 -9q10 -10 10 -24t-10 -23z" />
    <glyph glyph-name="uF0146" unicode="&#xf0146;" 
d="M406 750l-75 -148l-80 49l-1 -288l262 121l-74 48l63 113l92 -166l107 69l-105 202h-189zM661 176l74 45l88 -159h-210v-110h267l70 144l-107 193l77 47l-252 128zM50 94l69 -142h204v-102l243 155l-243 155v-98h-145l117 213l-107 68z" />
    <glyph glyph-name="uF0147" unicode="&#xf0147;" 
d="M779 371v25q0 15 -10 25q-11 11 -26 11t-26 -11q-11 -10 -11 -25v-359q0 -10 -7 -17t-17 -7h-170v502q39 3 71 22q32 20 49 51q99 -24 161 -81q63 -57 78 -136h-92zM487 13h-170q-10 0 -17 7t-7 17v359q0 15 -11 25q-11 11 -26 11t-26 -11q-10 -10 -10 -25v-25h-92
q15 79 78 136q62 57 161 81q17 -31 49 -51q32 -19 71 -22v-502zM590 660q-12 -8 -15 -22q-6 -22 -27 -36q-21 -15 -48 -15q-28 0 -49 15q-21 14 -26 36q-4 14 -16 22t-27 5q-147 -27 -237 -115q-89 -89 -95 -214q-1 -16 10 -27t27 -11h133v-261q0 -40 28 -68q29 -29 69 -29
h365q40 0 69 29q28 28 28 68v261h133q16 0 27 11t10 27q-6 125 -95 214q-90 88 -237 115q-15 3 -27 -5z" />
    <glyph glyph-name="uF0148" unicode="&#xf0148;" 
d="M748 513l31 85l55 -85h-86zM616 155l101 280h109zM492 38l-147 397h287zM159 435h108l101 -280zM205 598l31 -85h-85zM399 645l-93 -93l-31 93h124zM601 513h-217l108 117zM710 645l-32 -93l-93 93h125zM803 700l-8 7h-590l-8 -7l-147 -203v-31l411 -553q2 0 4 -1
q4 -2 4 -6l8 -8q4 0 11 -4q8 -4 12 -4q16 0 23 8l8 8q2 0 4 1q4 1 4 6l411 553v32z" />
    <glyph glyph-name="uF0149" unicode="&#xf0149;" 
d="M831 314q0 -9 -5 -24q-10 -29 -39 -56q-41 -41 -317 -321l52 -53l319 324q7 6 14 17q14 21 14 43v200l-38 -23v-107zM661 601h-164q-18 0 -46 -29q-25 -25 -216 -218q-95 -96 -185 -187l296 -304l406 409q27 28 26 52v277h-35l-16 -37q-28 -70 -24 -87q8 -24 9 -39
q0 -38 -26 -64q-26 -27 -63 -27t-64 27q-26 26 -26 64q0 32 24 56q24 27 68 36l-14 -46q-15 -3 -27 -19q-10 -14 -10 -26q0 -20 14 -34q15 -14 34 -14q16 0 29 10q12 10 16 26q1 16 -1 25l-5 23q3 8 4 13l39 100q49 102 97 107q52 6 80 -31q24 -31 24 -77q-1 -40 -37 -67
q-19 -13 -37 -18v-51q38 7 75 43q41 42 44 92q3 59 -27 101q-38 55 -122 52q-77 -2 -140 -138z" />
    <glyph glyph-name="uF0150" unicode="&#xf0150;" 
d="M544 632q15 -15 15 -36t-15 -35q-15 -15 -37 -15q-21 0 -36 15q-16 14 -16 35t16 36q15 15 36 15q22 0 37 -15zM550 543l38 -37q3 -2 6 -2q4 0 6 2q3 3 3 6q0 4 -3 6l-38 37q15 18 15 41q0 28 -20 48q-21 19 -50 19q-28 0 -49 -19q-20 -20 -20 -48t20 -47q21 -20 49 -20
q24 0 43 14zM808 -14q-33 -12 -77 -12t-77 12q-8 3 -15 6q3 2 6 6l2 2q1 2 2 3q12 15 19 28q9 18 10 27q3 0 8 -2q4 -2 7 -3q0 -1 7 16q6 13 6 29q0 21 -15 43q-11 17 -28 30q-4 4 -16 13q-9 7 -16 13l-3 3l-4 4q-18 13 -26 18q1 2 6 6q4 5 7 9v0q2 -2 4 -7q-1 6 0 12
q4 7 8 16q2 4 4 11q1 0 15 -5q27 -9 56 -10q33 -1 56 10l32 17q8 6 11 5q4 0 22 -9q36 -17 61 -47q24 -28 34 -63t3 -69q-8 -36 -33 -64q-27 -30 -76 -48zM487 -33q-38 0 -67 10q-43 14 -67 37q-22 23 -29 51q-6 27 2 55q9 28 30 50q23 24 54 38q16 6 19 7q3 0 11 -5l28 -13
q20 -9 49 -8q25 1 49 8q1 0 5 2q3 1 5 1q5 2 8 -2q6 -6 6 -21q0 -14 -6 -25q-3 -5 -8 -11q-4 -4 -4 -6q0 -4 4 -7q11 -8 28 -9q17 0 24 11q4 7 4 25q5 -4 13 -23t8 -30q0 -5 -2 -12l-1 -6q-2 -4 -2 -5t1 -2q1 0 1 -1h1q2 -2 1 -9q-2 -7 -4 -13q-4 -12 -11 -22
q-24 -37 -82 -56q-29 -9 -68 -9zM124 34q-29 28 -37 64q-8 34 3 69t38 63q28 30 67 47q21 9 25 9q3 0 12 -5l36 -17q23 -10 57 -10q29 0 58 7q11 -4 13 -5q8 -5 17 -18l-24 -10q-26 -13 -55 -42q-31 -31 -38 -77q-6 -48 17 -87q14 -24 40 -43q-35 -6 -75 -5q-40 2 -70 12
q-55 18 -84 48zM377 308q4 -3 14 -5q18 -3 61 -3l65 1q56 4 61 5q9 2 12 5q7 3 7 10q3 -1 7 -5q5 -4 5 -8l-4 -20q-7 -29 -24 -45q-30 -27 -91 -19q-32 5 -45 18q-4 3 -13 15t-18 20q-3 4 -10 6t-13 4q-39 18 -18 32q0 -7 4 -11zM628 269q4 14 7 27q-2 -12 -7 -27zM843 303
l-27 12q13 21 23 26q27 12 26 11q16 11 23 19q13 15 13 33q0 22 -21 40q-16 14 -39 22q-46 18 -122 18q-54 0 -100 -19q-57 -23 -57 -62q0 -12 7 -40q24 -6 39 -15q-7 13 -11 31l-4 25q0 4 5 10q5 5 9 6q0 -9 7 -13q4 -3 14 -5q5 -1 69 -7l74 -2q49 0 70 5q11 2 15 6
q5 4 5 13q24 -18 -21 -39q-6 -4 -14 -6q-8 -3 -11 -7q-11 -11 -21 -26t-14 -19q-15 -16 -52 -22q-59 -9 -92 15q-5 28 -53 45q-40 14 -85 14q-67 0 -107 -14q-21 -7 -34 -18q-18 -14 -18 -31q0 -7 2 -13q-20 -1 -44 2q-41 6 -58 22q-4 4 -16 19q-11 15 -23 26q-4 4 -13 7
q-8 2 -15 6q-49 21 -23 39q0 -9 5 -13t17 -6q23 -5 77 -5l82 2q71 6 77 7q11 2 16 5q8 4 8 13q4 -1 9 -6q6 -6 6 -10l-5 -25q-1 -5 -3 -10q18 2 36 3q6 22 6 31q0 39 -63 62q-51 19 -111 19q-84 0 -135 -18q-26 -8 -43 -22q-23 -18 -23 -40q0 -18 14 -33q8 -8 26 -19
q-1 1 28 -11q12 -5 26 -26l-30 -12q-33 -17 -70 -53q-39 -39 -47 -97q-9 -60 21 -109q28 -48 88 -77q56 -27 115 -27q67 0 113 13l8 2q38 -15 77 -15q53 0 90 10q31 9 58 29q-7 -6 -15 -10q16 -9 37 -16q31 -9 51 -12q13 -1 51 -1q53 0 104 27q54 29 80 77q26 49 19 109
q-8 58 -43 97q-33 36 -63 53zM491 178l-51 -14q-1 4 -10 17q-10 14 -10 15q-2 0 -18 -4l-4 -1q-3 -1 -5 -2q-5 -1 -5 -4l12 -20q-29 7 -28 7q-7 -13 -9 -22q5 -4 22 -8q2 -1 11 -4q7 -2 11 -3q-2 -4 -3 -9q-5 0 -22 6q-16 5 -20 5q-3 0 -4 -3l-1 -6q-3 -12 -3 -13q1 -2 8 -5
l33 -10q-2 -4 -6 -25q-4 -22 -4 -28q2 -1 17 -8q7 -3 8 -1q1 1 3 11q2 12 4 20q0 1 3 11q2 7 3 10q28 -14 39 -14q2 0 6 10l5 14q0 2 -18 8q-19 7 -21 7q0 3 1 5q2 3 2 5q5 0 23 -6t20 -6t4 2q0 1 2 4q1 2 3 4q6 10 7 12q-3 4 -17 8l-4 1h-1l25 8q2 2 3 4q0 1 -1 4
q-1 2 -2 3q-1 2 -1 3q-5 9 -7 12zM862 233q1 0 -32 -9l14 24q0 4 -6 6q-2 1 -5 2q-4 1 -5 1q-3 1 -8 3q-4 1 -5 2q-5 1 -7 0q-1 0 -12 -19q-10 -16 -10 -20l-59 17q-3 -4 -7 -15q-1 -1 -2 -4l-2 -4q-2 -3 -1 -5q0 -2 3 -4l29 -10q-1 -1 -2 -1l-4 -2q-11 -3 -12 -3
q-5 -3 -7 -6q0 -3 8 -15q1 -3 3 -6l2 -4q2 -4 5 -4q2 0 23 8q20 8 25 8l2 -6q2 -3 2 -7q-3 0 -25 -8q-19 -7 -20 -10q-1 -1 1 -6q4 -8 5 -11q5 -13 7 -13q3 0 22 8q18 7 23 9q0 -4 2 -13q4 -12 4 -13q2 -11 5 -26q2 -12 3 -13q1 -3 10 1q17 8 19 10q0 8 -5 35q-4 27 -6 32
l37 13q8 3 9 5q0 2 -3 17q-2 8 -2 7q-1 5 -4 5q-5 0 -23 -7q-19 -7 -25 -8q-1 6 -3 12q4 1 12 4q10 3 13 4q19 6 24 10q-2 13 -10 29zM277 197l-2 1l32 10q3 2 4 4q0 2 -1 5l-2 4q-2 3 -2 4q-6 11 -8 15l-65 -17q-1 4 -12 20q-12 19 -13 19q-3 1 -23 -5l-5 -1q-4 -1 -6 -2
q-6 -2 -6 -6l15 -24q-37 9 -35 9q-9 -16 -12 -29q7 -4 27 -10q4 -1 14 -4q9 -3 15 -4q-3 -6 -5 -12q-6 1 -26 8q-21 7 -26 7q-4 0 -5 -5l-2 -7q-3 -15 -3 -17q1 -2 10 -5l41 -13q-2 -5 -7 -32q-6 -27 -6 -35q3 -2 22 -10q9 -4 11 -1q1 1 3 13q3 15 6 26q0 1 3 13q3 9 3 13
q5 -2 25 -9q22 -8 25 -8q2 0 7 13q2 3 6 11q2 5 1 6q-1 3 -22 10q-25 8 -27 8q0 4 1 7q2 3 3 6q5 0 28 -8q22 -8 26 -8q2 0 4 4q1 0 3 4q2 3 3 6q9 12 9 15q-2 3 -8 6q-1 0 -13 3q-4 1 -5 2z" />
    <glyph glyph-name="uF0151" unicode="&#xf0151;" 
d="M437 136q26 -10 47 -30l227 65q-41 2 -70 32q-28 30 -28 71q0 44 32 75l-244 -70zM660 309q-2 2 -2 4q0 3 2 5l12 12q2 2 4 2q3 0 5 -2l35 -35l35 35q1 2 4 2q2 0 4 -2l12 -12q2 -2 2 -5q0 -2 -2 -4l-35 -35l35 -35q2 -1 2 -4q0 -2 -2 -4l-12 -12q-2 -2 -4 -2q-3 0 -4 2
l-35 35l-35 -35q-2 -2 -5 -2q-2 0 -4 2l-12 12q-2 2 -2 4q0 3 2 4l35 35zM778 212q26 26 26 62q0 37 -26 63t-62 26q-37 0 -63 -26t-26 -63q0 -36 26 -62t63 -26q36 0 62 26zM637 381l-46 183l-243 -69l45 -184zM684 449q-40 40 -40 97q0 56 40 96q39 40 96 40q56 0 96 -40
t40 -96q0 -57 -40 -97q-40 -39 -96 -39q-57 0 -96 39zM901 665q-50 49 -120 49t-119 -49t-49 -119q0 -62 40 -109t100 -57l-17 -5q36 -7 59 -35q24 -29 24 -66q0 -25 -12 -48q-12 -22 -32 -36l100 29l-42 167q52 16 84 60q33 44 33 100q0 70 -49 119zM373 -42q-16 10 -21 29
q-4 19 5 36t27 22q17 5 33 -5t21 -29t-5 -36q-9 -17 -26 -22q-18 -5 -34 5zM305 56q-21 -39 -10 -84q11 -44 48 -67t78 -11q42 12 63 52q21 39 10 84q-11 44 -48 67t-78 11t-63 -52zM384 142l-130 520h-1v1h-91q-9 14 -23 14h-59q-13 0 -21 -9q-9 -10 -9 -23t9 -22
q8 -9 21 -9h59q8 0 15 5t11 13h47l126 -503q12 6 22 9q11 3 24 4zM514 62q6 -13 9 -24t4 -26l344 99l-14 49zM789 563v89q0 7 -5 12t-12 5t-12 -5t-5 -12v-106q0 -7 5 -12t12 -5h70q7 0 12 5t5 12t-5 12t-12 5h-53z" />
    <glyph glyph-name="uF0152" unicode="&#xf0152;" 
d="M919 116h-124v226q-6 31 -18 50q-12 20 -26 22q-14 3 -27 -14q-14 -19 -22 -58v-226h-626v432h843v-432zM688 577v171q-5 19 -18 29q-12 9 -28 9q-16 -1 -29 -11q-14 -10 -19 -27v-171h-34v208q-8 18 -21 28t-26 10q-14 0 -26 -10q-13 -10 -21 -28v-208h-33v173
q-8 16 -20 25q-13 9 -26 10q-15 1 -27 -7q-13 -10 -21 -28v-173h-34v134q-6 15 -18 24q-12 10 -26 11q-15 1 -27 -7q-14 -9 -23 -28v-134h-161v-487h167q1 -61 25 -117q23 -54 63 -95q40 -42 92 -64q53 -24 111 -24t111 24q52 22 92 64q40 41 63 95q24 56 26 117h150v487
h-262zM421 440l42 -81h1v-1h-53v-19h53v-28h-53v-19h53v-109h-40v-19h152v19h-38v109h51v19h-51v28h51v19h-51v5h-1l44 77v1h34v19h-92v-19h24l-45 -78h-7l-41 78h23v19h-92v-19h36v-1z" />
  </font>
</defs>
</svg>
